<svg xmlns="http://www.w3.org/2000/svg" width="16" height="16" viewBox="0 0 16 16"><defs><style>.a{fill:#fff;}</style></defs><g transform="translate(-1 -1)"><g transform="translate(1 1)"><path class="a" d="M16.871,9.258c2.215,0,3.871-2.316,3.871-4.387a3.871,3.871,0,0,0-7.742,0C13,6.942,14.655,9.258,16.871,9.258Z" transform="translate(-9.903 -1)"/><path class="a" d="M42.1,39a3.1,3.1,0,1,0,3.1,3.1A3.1,3.1,0,0,0,42.1,39Zm1.29,3.355H42.355v1.032a.258.258,0,0,1-.516,0V42.355H40.806a.258.258,0,0,1,0-.516h1.032V40.806a.258.258,0,0,1,.516,0v1.032h1.032a.258.258,0,0,1,0,.516Z" transform="translate(-29.194 -29.194)"/><path class="a" d="M10.29,42.1a3.6,3.6,0,0,1,1.269-2.746A17.371,17.371,0,0,0,7.968,39a14.515,14.515,0,0,0-5.9,1.077A1.8,1.8,0,0,0,1,41.727v2.692a.258.258,0,0,0,.258.258H11.377A3.6,3.6,0,0,1,10.29,42.1Z" transform="translate(-1 -29.194)"/></g></g></svg>