<svg xmlns="http://www.w3.org/2000/svg" width="24" height="23.175" viewBox="0 0 24 23.175"><defs><style>.a{fill:#2ca01c;}</style></defs><g transform="translate(-3 -4)"><g transform="translate(3 4)"><path class="a" d="M26.853,4.1a.414.414,0,0,0-.418-.068l-23.173,9.1a.414.414,0,0,0-.089.722l3.742,2.661,9.464-4.383L8.793,17.851v8.908a.414.414,0,0,0,.665.331l5.95-4.535L21.8,27.1a.41.41,0,0,0,.24.077.42.42,0,0,0,.152-.029.414.414,0,0,0,.253-.3L26.992,4.5a.414.414,0,0,0-.139-.4Z" transform="translate(-3 -4)"/></g></g></svg>