<svg xmlns="http://www.w3.org/2000/svg" width="24" height="16.8" viewBox="0 0 24 16.8"><defs><style>.a{fill:#2ca01c;}</style></defs><g transform="translate(0 -32)"><g transform="translate(0 32)"><path class="a" d="M7.2,40.4A4.2,4.2,0,1,0,3,36.2,4.2,4.2,0,0,0,7.2,40.4Zm2.88,1.2H9.769a5.8,5.8,0,0,1-5.137,0H4.32A4.321,4.321,0,0,0,0,45.92V47a1.8,1.8,0,0,0,1.8,1.8H12.6A1.8,1.8,0,0,0,14.4,47V45.92A4.321,4.321,0,0,0,10.08,41.6ZM18,40.4a3.6,3.6,0,1,0-3.6-3.6A3.6,3.6,0,0,0,18,40.4Zm1.8,1.2h-.142a4.729,4.729,0,0,1-3.315,0H16.2a4.165,4.165,0,0,0-2.089.577A5.488,5.488,0,0,1,15.6,45.92v1.44c0,.083-.019.161-.023.24H22.2A1.8,1.8,0,0,0,24,45.8,4.2,4.2,0,0,0,19.8,41.6Z" transform="translate(0 -32)"/></g></g></svg>