<?xml version="1.0" encoding="utf-8"?>
<!-- Svg Vector Icons : http://www.onlinewebfonts.com/icon -->
<!DOCTYPE svg PUBLIC "-//W3C//DTD SVG 1.1//EN" "http://www.w3.org/Graphics/SVG/1.1/DTD/svg11.dtd">
<svg version="1.1" xmlns="http://www.w3.org/2000/svg" xmlns:xlink="http://www.w3.org/1999/xlink" x="0px" y="0px" viewBox="0 0 1000 1000" enable-background="new 0 0 1000 1000" xml:space="preserve">
<metadata> Svg Vector Icons : http://www.onlinewebfonts.com/icon </metadata>
<g><path fill="#495057" d="M940.8,832.9C847,742,686.9,677.4,630.6,666.1c-3-6.2-5.8-20.4-6.8-34.6c18.8-21,64.3-77.8,81.3-151.6c17.4-8.2,32-25.9,41.1-50.6c12.8-34.8,13.8-82.9-11.1-114c0.1-0.5,0.1-1,0.2-1.5c4.7-43.7,17.2-159.6-51.1-235.7C643.6,32.9,582.3,10,502,10c-80.3,0-141.6,22.9-182.2,68.1c-68.3,76-55.8,191.9-51.2,235.6c0.1,0.5,0.1,1,0.2,1.6c-24.9,31.2-23.9,79.2-11.1,114.1c9.1,24.8,23.7,42.4,41.1,50.6c17,73.8,62.5,130.6,81.3,151.6c-1.1,14-3.9,28.4-6.9,34.6c-57.1,11.4-220.9,77.7-314.1,170.6v6.7h0v74h0v40.9c0,17.4,14.1,31.6,31.6,31.6h818.4c17.4,0,31.6-14.1,31.6-31.6v-40.9v-5.8v-25.3h0V832.9z"/></g>
</svg>