<svg width="24" height="24" viewBox="0 0 24 24" fill="none" xmlns="http://www.w3.org/2000/svg">
<g id=" skip-back">
<path id="Icon" fill-rule="evenodd" clip-rule="evenodd" d="M16.45 6.20048C15.716 5.85548 14.848 5.95748 14.241 6.46048L9.141 10.6735C9.088 10.7175 9.047 10.7685 9 10.8175V6.99948C9 6.44648 8.552 5.99948 8 5.99948C7.448 5.99948 7 6.44648 7 6.99948V16.9995C7 17.5525 7.448 17.9995 8 17.9995C8.552 17.9995 9 17.5525 9 16.9995V13.1805C9.047 13.2295 9.088 13.2815 9.141 13.3255L14.241 17.5395C14.609 17.8435 15.073 18.0005 15.544 18.0005C15.851 18.0005 16.161 17.9335 16.45 17.7985C17.097 17.4925 17.5 16.8855 17.5 16.2125V7.78648C17.5 7.11348 17.097 6.50648 16.45 6.20048Z" fill="#71787E"/>
</g>
</svg>
