<svg width="24" height="24" viewBox="0 0 24 24" fill="none" xmlns="http://www.w3.org/2000/svg">
<g id=" skip-forward">
<path id="Icon" fill-rule="evenodd" clip-rule="evenodd" d="M16 5.99954C15.448 5.99954 15 6.44654 15 6.99954V10.8175C14.953 10.7695 14.912 10.7175 14.858 10.6735L9.759 6.45954C9.15 5.95754 8.282 5.85554 7.55 6.20054C6.902 6.50654 6.5 7.11354 6.5 7.78654V16.2125C6.5 16.8855 6.902 17.4925 7.55 17.7985C7.839 17.9345 8.149 18.0005 8.456 18.0005C8.927 18.0005 9.391 17.8435 9.759 17.5385L14.859 13.3255C14.912 13.2815 14.953 13.2295 15 13.1815V16.9995C15 17.5525 15.448 17.9995 16 17.9995C16.552 17.9995 17 17.5525 17 16.9995V6.99954C17 6.44654 16.552 5.99954 16 5.99954Z" fill="#71787E"/>
</g>
</svg>
