<?xml version="1.0" standalone="no"?>
<!DOCTYPE svg PUBLIC "-//W3C//DTD SVG 1.0//EN" "http://www.w3.org/TR/2001/REC-SVG-20010904/DTD/svg10.dtd">
<svg xmlns="http://www.w3.org/2000/svg" xmlns:xlink="http://www.w3.org/1999/xlink" id="body_1" width="328" height="160">

<g transform="matrix(0.7505721 0 0 0.7511737 0 0)">
	<g transform="matrix(1.332317 0 0 1.33125 0 0)">
	</g>
    <path transform="matrix(1.332317 0 0 1.33125 0 0)"  d="M10 0L318 0C 323.5234 0 328 4.476562 328 10L328 10L328 150C 328 155.5234 323.5234 160 318 160L318 160L10 160C 4.476562 160 0 155.5234 0 150L0 150L0 10C 0 4.476562 4.476562 0 10 0z" stroke="none" fill="#2DE514" fill-rule="nonzero" fill-opacity="0.4" />
	<g transform="matrix(2.664634 0 0 2.6625 0 0)">
	</g>
    <path transform="matrix(2.664634 0 0 2.6625 0 0)"  d="M5 1L159 1C 161.209 1 163 2.791016 163 5L163 5L163 75C 163 77.20898 161.209 79 159 79L159 79L5 79C 2.791016 79 1 77.20898 1 75L1 75L1 5C 1 2.791016 2.791016 1 5 1z" stroke="#2CA01C" stroke-width="2" fill="none" />
	<g transform="matrix(1.332317 0 0 1.33125 0 0)">
	</g>
    <path transform="matrix(1.332317 0 0 1.33125 0 0)"  d="M199.6914 21.96484C 199.1445 22.30469 198.7227 23.21875 197.7695 26.08984L197.7695 26.08984L197.3945 27.22656L196.3086 27.125C 194.4258 26.95703 194.7813 26.20703 189.7109 40.88281C 187.2969 47.86328 185.3477 53.60156 185.3789 53.63672C 185.5313 53.73828 194.9414 56.94922 194.9883 56.91406C 195.0078 56.87891 196.332 53.125 197.8945 48.55859C 201.1367 39.19922 200.7305 39.86328 201.8359 42.20703C 202.5195 43.67188 202.8477 45.27734 202.7852 46.89453C 202.6992 47.64063 201.6133 51.02344 199.0977 58.27344C 195.5313 68.54688 195.5156 68.59766 195.7344 69.27344C 195.9727 69.96875 196.5664 70.48828 197.2891 70.63672C 198.0117 70.78125 198.7578 70.53516 199.25 69.98438C 199.5391 69.62891 206.3984 49.77734 206.6875 48.46875C 207.0938 46.36719 206.9297 44.19922 206.2109 42.18359C 205.5117 40.24609 204.5391 38.41797 203.3242 36.75C 202.9961 36.37891 202.7188 35.96094 202.5078 35.51172C 202.6953 34.75 202.9219 34.00391 203.1875 33.26953C 203.9375 31.06641 203.9531 30.5 203.3594 29.73438C 203.0234 29.41016 202.6172 29.16406 202.1719 29.02344C 201.6953 28.87109 201.3203 28.64844 201.3203 28.54688C 201.3203 28.44531 201.6797 27.32031 202.1211 26.06641C 203.0078 23.51953 203.0078 23.19531 202.207 22.29688C 201.5547 21.59766 200.5 21.46094 199.6914 21.96484z" stroke="none" fill="#2CA01C" fill-rule="nonzero" />
	<g transform="matrix(1.332317 0 0 1.33125 0 0)">
	</g>
    <path transform="matrix(1.332317 0 0 1.33125 0 0)"  d="M183.8516 57.85156C 182.5273 61.38281 172.5742 90.59766 172.3203 91.69922C 171.5586 95.20313 171.2227 98.78516 171.3203 102.3672L171.3203 102.3672L171.2344 107.5781L170.0977 107.5781C 169.4844 107.5781 167.957 107.4609 166.7148 107.3086C 160.5664 106.5938 157.5 104.9297 157.5156 102.3086C 157.7188 101.3477 158.1563 100.4492 158.793 99.69922C 160.8281 96.87891 157.6055 96.32031 151.6914 98.47656C 150.8242 98.79688 149.2109 99.47656 148.0938 99.98828C 146.6016 100.8477 144.9336 101.3555 143.2188 101.4648C 142.0469 101.4648 141.6055 101.2773 141.3672 100.6641C 140.9258 99.51172 143.4219 96.57031 147.6328 93.24219C 148.7891 92.32422 150.0352 91.28906 150.3867 90.93359C 152.3398 88.98047 151.7422 87.94531 148.6875 87.97656C 145.8672 88.02734 141.6563 89.08203 133.2891 91.88281C 127.4297 93.83984 125.6289 94.32813 124.2695 94.32813C 122.8711 94.32813 122.2148 93.85547 122.2148 92.80078C 122.3125 91.67578 122.8867 90.64453 123.793 89.96484C 125.5742 88.37891 127.8828 87.51953 130.2656 87.55469C 131.6094 87.57031 132.7109 87.30078 132.9648 86.875C 133.2891 86.36719 129.7656 86.27734 127.9648 86.75781C 125.1289 87.61328 122.582 89.22656 120.5938 91.42188C 119.1328 93.54297 120.4883 95.42188 123.5117 95.39453C 124.5469 95.35156 125.5781 95.22656 126.5938 95.01953C 130.5078 94.00391 134.3633 92.76563 138.1406 91.31641C 141.0703 90.26172 144.125 89.58984 147.2266 89.31641C 149.0469 89.21484 149.3359 89.33594 149.0273 90.0625C 148.7578 90.72656 148.043 91.37109 144.9531 93.76563C 140.4766 97.20313 138.9922 98.96875 138.9922 100.8203C 138.9922 102.3477 140.1133 102.875 142.5742 102.5039C 145.4648 101.8086 148.2969 100.9023 151.0508 99.78516C 152.8047 99.02734 154.6797 98.59766 156.5859 98.51172C 157.1992 98.66016 157.0977 99.15625 156.1445 100.7852C 155.1563 102.4492 155.0586 103.2461 155.6523 104.4727C 156.9414 107.1563 161.6133 108.6016 168.9688 108.6016L168.9688 108.6016L171.3672 108.6016L172.2148 107.6992C 175.9063 103.8945 179.0664 99.60938 181.6172 94.96094C 182.1758 93.82422 184.2656 88.05078 187.6602 78.19922C 190.5156 69.92969 193.0469 62.64063 193.2852 62C 193.4336 61.60938 193.5586 61.20703 193.6563 60.80078C 193.5898 60.75 184.1641 57.48828 184.0781 57.48828C 184.0234 57.47656 183.9375 57.64844 183.8516 57.85156z" stroke="none" fill="#2CA01C" fill-rule="nonzero" />
	<g transform="matrix(1.332317 0 0 1.33125 162.5427 183.7125)">
	</g>
    <path transform="matrix(1.332317 0 0 1.33125 162.5427 183.7125)"  d="M18.03125 -18.84375L18.03125 -15.92188C 17.10156 -16.79688 16.11328 -17.44531 15.0625 -17.875C 14.00781 -18.30078 12.89063 -18.51563 11.70313 -18.51563C 9.367188 -18.51563 7.582031 -17.80078 6.34375 -16.375C 5.101562 -14.94531 4.484375 -12.88281 4.484375 -10.1875C 4.484375 -7.5 5.101562 -5.441406 6.34375 -4.015625C 7.582031 -2.585938 9.367188 -1.875 11.70313 -1.875C 12.89063 -1.875 14.00781 -2.085938 15.0625 -2.515625C 16.11328 -2.941406 17.10156 -3.585938 18.03125 -4.453125L18.03125 -4.453125L18.03125 -1.578125C 17.0625 -0.921875 16.03516 -0.425781 14.95313 -0.09375C 13.87891 0.226562 12.74219 0.390625 11.54688 0.390625C 8.453125 0.390625 6.015625 -0.550781 4.234375 -2.4375C 2.460938 -4.332031 1.578125 -6.914062 1.578125 -10.1875C 1.578125 -13.46875 2.460938 -16.05078 4.234375 -17.9375C 6.015625 -19.83203 8.453125 -20.78125 11.54688 -20.78125C 12.76563 -20.78125 13.91016 -20.61719 14.98438 -20.29688C 16.06641 -19.97266 17.08203 -19.48828 18.03125 -18.84375z" stroke="none" fill="#000000" fill-rule="nonzero" />
	<g transform="matrix(1.332317 0 0 1.33125 162.5427 183.7125)">
	</g>
    <path transform="matrix(1.332317 0 0 1.33125 162.5427 183.7125)"  d="M18.03125 -18.84375L18.03125 -15.92188C 17.10156 -16.79688 16.11328 -17.44531 15.0625 -17.875C 14.00781 -18.30078 12.89063 -18.51563 11.70313 -18.51563C 9.367188 -18.51563 7.582031 -17.80078 6.34375 -16.375C 5.101562 -14.94531 4.484375 -12.88281 4.484375 -10.1875C 4.484375 -7.5 5.101562 -5.441406 6.34375 -4.015625C 7.582031 -2.585938 9.367188 -1.875 11.70313 -1.875C 12.89063 -1.875 14.00781 -2.085938 15.0625 -2.515625C 16.11328 -2.941406 17.10156 -3.585938 18.03125 -4.453125L18.03125 -4.453125L18.03125 -1.578125C 17.0625 -0.921875 16.03516 -0.425781 14.95313 -0.09375C 13.87891 0.226562 12.74219 0.390625 11.54688 0.390625C 8.453125 0.390625 6.015625 -0.550781 4.234375 -2.4375C 2.460938 -4.332031 1.578125 -6.914062 1.578125 -10.1875C 1.578125 -13.46875 2.460938 -16.05078 4.234375 -17.9375C 6.015625 -19.83203 8.453125 -20.78125 11.54688 -20.78125C 12.76563 -20.78125 13.91016 -20.61719 14.98438 -20.29688C 16.06641 -19.97266 17.08203 -19.48828 18.03125 -18.84375z" stroke="none" fill="#000000" fill-rule="nonzero" />
	<g transform="matrix(1.332317 0 0 1.33125 188.5879 183.7125)">
	</g>
    <path transform="matrix(1.332317 0 0 1.33125 188.5879 183.7125)"  d="M15.375 -9.25L15.375 0L12.85938 0L12.85938 -9.15625C 12.85938 -10.60156 12.57031 -11.6875 12 -12.40625C 11.4375 -13.13281 10.59375 -13.5 9.46875 -13.5C 8.101562 -13.5 7.03125 -13.0625 6.25 -12.1875C 5.46875 -11.32031 5.078125 -10.14453 5.078125 -8.65625L5.078125 -8.65625L5.078125 0L2.546875 0L2.546875 -21.28125L5.078125 -21.28125L5.078125 -12.9375C 5.671875 -13.85156 6.375 -14.53906 7.1875 -15C 8.007812 -15.45703 8.953125 -15.6875 10.01563 -15.6875C 11.77344 -15.6875 13.10938 -15.14063 14.01563 -14.04688C 14.92188 -12.96094 15.375 -11.36328 15.375 -9.25z" stroke="none" fill="#000000" fill-rule="nonzero" />
	<g transform="matrix(1.332317 0 0 1.33125 188.5879 183.7125)">
	</g>
    <path transform="matrix(1.332317 0 0 1.33125 188.5879 183.7125)"  d="M15.375 -9.25L15.375 0L12.85938 0L12.85938 -9.15625C 12.85938 -10.60156 12.57031 -11.6875 12 -12.40625C 11.4375 -13.13281 10.59375 -13.5 9.46875 -13.5C 8.101562 -13.5 7.03125 -13.0625 6.25 -12.1875C 5.46875 -11.32031 5.078125 -10.14453 5.078125 -8.65625L5.078125 -8.65625L5.078125 0L2.546875 0L2.546875 -21.28125L5.078125 -21.28125L5.078125 -12.9375C 5.671875 -13.85156 6.375 -14.53906 7.1875 -15C 8.007812 -15.45703 8.953125 -15.6875 10.01563 -15.6875C 11.77344 -15.6875 13.10938 -15.14063 14.01563 -14.04688C 14.92188 -12.96094 15.375 -11.36328 15.375 -9.25z" stroke="none" fill="#000000" fill-rule="nonzero" />
	<g transform="matrix(1.332317 0 0 1.33125 212.2288 183.7125)">
	</g>
    <path transform="matrix(1.332317 0 0 1.33125 212.2288 183.7125)"  d="M8.953125 -18.73438L8.171875 -19.48438C 7.960938 -19.66016 7.785156 -19.78906 7.640625 -19.875C 7.492188 -19.96875 7.359375 -20.01563 7.234375 -20.01563C 6.890625 -20.01563 6.632812 -19.84766 6.46875 -19.51563C 6.300781 -19.17969 6.210938 -18.64063 6.203125 -17.89063L6.203125 -17.89063L4.484375 -17.89063C 4.503906 -19.12891 4.742188 -20.08203 5.203125 -20.75C 5.671875 -21.41406 6.320312 -21.75 7.15625 -21.75C 7.5 -21.75 7.816406 -21.6875 8.109375 -21.5625C 8.398438 -21.4375 8.71875 -21.22266 9.0625 -20.92188L9.0625 -20.92188L9.828125 -20.17188C 10.03516 -19.98438 10.21094 -19.84766 10.35938 -19.76563C 10.51563 -19.67969 10.64844 -19.64063 10.76563 -19.64063C 11.10938 -19.64063 11.36328 -19.80078 11.53125 -20.125C 11.69531 -20.45703 11.78516 -21 11.79688 -21.75L11.79688 -21.75L13.51563 -21.75C 13.49219 -20.51953 13.25 -19.56641 12.78125 -18.89063C 12.32031 -18.22266 11.67578 -17.89063 10.84375 -17.89063C 10.5 -17.89063 10.17969 -17.95313 9.890625 -18.07813C 9.597656 -18.21094 9.285156 -18.42969 8.953125 -18.73438zM13.28125 -13.4375L13.28125 -15.0625C 13.83203 -14.65625 14.30469 -14.35156 14.70313 -14.15625C 15.10938 -13.95703 15.45313 -13.85938 15.73438 -13.85938C 16.16016 -13.85938 16.47656 -13.98438 16.6875 -14.23438C 16.89453 -14.48438 17 -14.85938 17 -15.35938C 17 -15.64844 16.96094 -15.9375 16.89063 -16.21875C 16.82813 -16.5 16.72656 -16.78125 16.59375 -17.0625L16.59375 -17.0625L18.40625 -17.0625C 18.5 -16.71875 18.56641 -16.39063 18.60938 -16.07813C 18.66016 -15.76563 18.6875 -15.47266 18.6875 -15.20313C 18.6875 -14.08594 18.48828 -13.26953 18.09375 -12.75C 17.69531 -12.22656 17.07031 -11.96875 16.21875 -11.96875C 15.78125 -11.96875 15.32031 -12.08594 14.84375 -12.32813C 14.36328 -12.56641 13.84375 -12.9375 13.28125 -13.4375zM2.375 -6.046875L2.375 -15.3125L4.890625 -15.3125L4.890625 -6.140625C 4.890625 -4.691406 5.171875 -3.601562 5.734375 -2.875C 6.304688 -2.15625 7.15625 -1.796875 8.28125 -1.796875C 9.644531 -1.796875 10.71875 -2.226562 11.5 -3.09375C 12.28906 -3.957031 12.6875 -5.132812 12.6875 -6.625L12.6875 -6.625L12.6875 -15.3125L15.20313 -15.3125L15.20313 0L12.6875 0L12.6875 -2.359375C 12.07031 -1.421875 11.36328 -0.726562 10.5625 -0.28125C 9.757812 0.164062 8.820312 0.390625 7.75 0.390625C 5.988281 0.390625 4.648438 -0.15625 3.734375 -1.25C 2.828125 -2.34375 2.375 -3.941406 2.375 -6.046875z" stroke="none" fill="#000000" fill-rule="nonzero" />
	<g transform="matrix(1.332317 0 0 1.33125 212.2288 183.7125)">
	</g>
    <path transform="matrix(1.332317 0 0 1.33125 212.2288 183.7125)"  d="M8.953125 -18.73438L8.171875 -19.48438C 7.960938 -19.66016 7.785156 -19.78906 7.640625 -19.875C 7.492188 -19.96875 7.359375 -20.01563 7.234375 -20.01563C 6.890625 -20.01563 6.632812 -19.84766 6.46875 -19.51563C 6.300781 -19.17969 6.210938 -18.64063 6.203125 -17.89063L6.203125 -17.89063L4.484375 -17.89063C 4.503906 -19.12891 4.742188 -20.08203 5.203125 -20.75C 5.671875 -21.41406 6.320312 -21.75 7.15625 -21.75C 7.5 -21.75 7.816406 -21.6875 8.109375 -21.5625C 8.398438 -21.4375 8.71875 -21.22266 9.0625 -20.92188L9.0625 -20.92188L9.828125 -20.17188C 10.03516 -19.98438 10.21094 -19.84766 10.35938 -19.76563C 10.51563 -19.67969 10.64844 -19.64063 10.76563 -19.64063C 11.10938 -19.64063 11.36328 -19.80078 11.53125 -20.125C 11.69531 -20.45703 11.78516 -21 11.79688 -21.75L11.79688 -21.75L13.51563 -21.75C 13.49219 -20.51953 13.25 -19.56641 12.78125 -18.89063C 12.32031 -18.22266 11.67578 -17.89063 10.84375 -17.89063C 10.5 -17.89063 10.17969 -17.95313 9.890625 -18.07813C 9.597656 -18.21094 9.285156 -18.42969 8.953125 -18.73438zM13.28125 -13.4375L13.28125 -15.0625C 13.83203 -14.65625 14.30469 -14.35156 14.70313 -14.15625C 15.10938 -13.95703 15.45313 -13.85938 15.73438 -13.85938C 16.16016 -13.85938 16.47656 -13.98438 16.6875 -14.23438C 16.89453 -14.48438 17 -14.85938 17 -15.35938C 17 -15.64844 16.96094 -15.9375 16.89063 -16.21875C 16.82813 -16.5 16.72656 -16.78125 16.59375 -17.0625L16.59375 -17.0625L18.40625 -17.0625C 18.5 -16.71875 18.56641 -16.39063 18.60938 -16.07813C 18.66016 -15.76563 18.6875 -15.47266 18.6875 -15.20313C 18.6875 -14.08594 18.48828 -13.26953 18.09375 -12.75C 17.69531 -12.22656 17.07031 -11.96875 16.21875 -11.96875C 15.78125 -11.96875 15.32031 -12.08594 14.84375 -12.32813C 14.36328 -12.56641 13.84375 -12.9375 13.28125 -13.4375zM2.375 -6.046875L2.375 -15.3125L4.890625 -15.3125L4.890625 -6.140625C 4.890625 -4.691406 5.171875 -3.601562 5.734375 -2.875C 6.304688 -2.15625 7.15625 -1.796875 8.28125 -1.796875C 9.644531 -1.796875 10.71875 -2.226562 11.5 -3.09375C 12.28906 -3.957031 12.6875 -5.132812 12.6875 -6.625L12.6875 -6.625L12.6875 -15.3125L15.20313 -15.3125L15.20313 0L12.6875 0L12.6875 -2.359375C 12.07031 -1.421875 11.36328 -0.726562 10.5625 -0.28125C 9.757812 0.164062 8.820312 0.390625 7.75 0.390625C 5.988281 0.390625 4.648438 -0.15625 3.734375 -1.25C 2.828125 -2.34375 2.375 -3.941406 2.375 -6.046875z" stroke="none" fill="#000000" fill-rule="nonzero" />
	<g transform="matrix(1.332317 0 0 1.33125 235.8695 183.7125)">
	</g>
    <path transform="matrix(1.332317 0 0 1.33125 235.8695 183.7125)"  d="" stroke="none" fill="#000000" fill-rule="nonzero" />
	<g transform="matrix(1.332317 0 0 1.33125 235.8695 183.7125)">
	</g>
    <path transform="matrix(1.332317 0 0 1.33125 235.8695 183.7125)"  d="" stroke="none" fill="#000000" fill-rule="nonzero" />
	<g transform="matrix(1.332317 0 0 1.33125 247.7277 183.7125)">
	</g>
    <path transform="matrix(1.332317 0 0 1.33125 247.7277 183.7125)"  d="M2.546875 -21.28125L5.078125 -21.28125L5.078125 -8.703125L12.57813 -15.3125L15.79688 -15.3125L7.671875 -8.15625L16.14063 0L12.85938 0L5.078125 -7.484375L5.078125 0L2.546875 0L2.546875 -21.28125z" stroke="none" fill="#000000" fill-rule="nonzero" />
	<g transform="matrix(1.332317 0 0 1.33125 247.7277 183.7125)">
	</g>
    <path transform="matrix(1.332317 0 0 1.33125 247.7277 183.7125)"  d="M2.546875 -21.28125L5.078125 -21.28125L5.078125 -8.703125L12.57813 -15.3125L15.79688 -15.3125L7.671875 -8.15625L16.14063 0L12.85938 0L5.078125 -7.484375L5.078125 0L2.546875 0L2.546875 -21.28125z" stroke="none" fill="#000000" fill-rule="nonzero" />
	<g transform="matrix(1.332317 0 0 1.33125 267.9986 183.7125)">
	</g>
    <path transform="matrix(1.332317 0 0 1.33125 267.9986 183.7125)"  d="M9.015625 1.421875C 8.296875 3.242188 7.597656 4.429688 6.921875 4.984375C 6.253906 5.546875 5.351562 5.828125 4.21875 5.828125L4.21875 5.828125L2.21875 5.828125L2.21875 3.71875L3.6875 3.71875C 4.382812 3.71875 4.921875 3.550781 5.296875 3.21875C 5.679688 2.894531 6.109375 2.125 6.578125 0.90625L6.578125 0.90625L7.03125 -0.25L0.828125 -15.3125L3.5 -15.3125L8.28125 -3.34375L13.07813 -15.3125L15.73438 -15.3125L9.015625 1.421875zM9.90625 -22.39063L12.625 -22.39063L8.171875 -17.25L6.078125 -17.25z" stroke="none" fill="#000000" fill-rule="nonzero" />
	<g transform="matrix(1.332317 0 0 1.33125 267.9986 183.7125)">
	</g>
    <path transform="matrix(1.332317 0 0 1.33125 267.9986 183.7125)"  d="M9.015625 1.421875C 8.296875 3.242188 7.597656 4.429688 6.921875 4.984375C 6.253906 5.546875 5.351562 5.828125 4.21875 5.828125L4.21875 5.828125L2.21875 5.828125L2.21875 3.71875L3.6875 3.71875C 4.382812 3.71875 4.921875 3.550781 5.296875 3.21875C 5.679688 2.894531 6.109375 2.125 6.578125 0.90625L6.578125 0.90625L7.03125 -0.25L0.828125 -15.3125L3.5 -15.3125L8.28125 -3.34375L13.07813 -15.3125L15.73438 -15.3125L9.015625 1.421875zM9.90625 -22.39063L12.625 -22.39063L8.171875 -17.25L6.078125 -17.25z" stroke="none" fill="#000000" fill-rule="nonzero" />
	<g transform="matrix(1.332317 0 0 1.33125 0 0)">
	</g>
    <path transform="matrix(1.332317 0 0 1.33125 0 0)"  d="M320 152L320 133.707L301.707 152L320 152z" stroke="none" fill="#2CA01C" fill-rule="nonzero" />
</g>
</svg>