<svg xmlns="http://www.w3.org/2000/svg" width="164" height="80" viewBox="0 0 164 80">
  <g id="Group_1" data-name="Group 1" transform="translate(-912 -580)">
    <g id="Rectangle_2" data-name="Rectangle 2" transform="translate(912 580)" fill="rgba(229,208,20,0.4)" stroke="#2ca01c" stroke-width="2">
      <rect width="164" height="80" rx="5" stroke="none"/>
      <rect x="1" y="1" width="162" height="78" rx="4" fill="none"/>
    </g>
    <text id="Ký_nháy" data-name="Ký nháy" transform="translate(970 649)" fill="#2ca01c" font-size="14" font-family="SegoeUI, Segoe UI"><tspan x="0" y="0">Ký nháy</tspan></text>
    <path id="Path_5" data-name="Path 5" d="M1330.508,657.508v-9.146l-9.146,9.146Z" transform="translate(-258.508 -1.508)" fill="#2ca01c"/>
    <path id="Path_7" data-name="Path 7" d="M11.15-11.9a4.144,4.144,0,0,0,.825-1.85c2.25.125,7.375.2,7.375,3.425,0,2.2-1.825,4.85-7.075,6.7A18.814,18.814,0,0,1,6.525-2.55C5.5-2.575,5.2-2.85,5.1-3c-.15-.325-.25-.675.525-1.7ZM4.6-6.2C3.5-4.825,2.2-3.175,2.2-1.325A1.422,1.422,0,0,0,2.775,0a5.6,5.6,0,0,0,2.15.275,24.4,24.4,0,0,0,10.325-2.8C18.2-4.2,21.175-7.05,21.175-10.65a6.481,6.481,0,0,0-2.625-5.525A11.975,11.975,0,0,0,12.575-17.5a24.121,24.121,0,0,0-8.5,1.75A3.462,3.462,0,0,0,1.7-13.325,10.555,10.555,0,0,0,1.35-11.6a.837.837,0,0,0,.95.875c1.175,0,2.925-.775,4.15-.975.225-.025.775-.15.775-.45,0-.375-1.225-.275-1.35-.275H5.2v-.05a20.654,20.654,0,0,1,5.375-1.175Zm21.65-4.5c.025-.575,2.8-2.9,9.25-3.125l.05.05a5.58,5.58,0,0,0-1.825,1.75.35.35,0,0,0,.4.375,1.5,1.5,0,0,0,.625-.25A7.084,7.084,0,0,1,37-13.125c1.475-.575,2.1-1,2.1-2.85,0-.5-.075-.7-.65-.825a15.014,15.014,0,0,0-3.15-.35c-5.475,0-10,2.375-10.775,3.65a9.273,9.273,0,0,0-.8,3.325c0,1.5,1.3,1.9,2.55,2.1,1.2.2,8.125,1.2,8.125,2.475,0,.4-2.45,2.975-11.375,2.65V-3a2.858,2.858,0,0,1,.425-.375c.175-.1.425-.225.425-.475,0-.15-.075-.175-.2-.175a6.627,6.627,0,0,0-2.15.725A5.276,5.276,0,0,0,20.25-1.075c0,1.45,3.05,1.45,4.025,1.45,3.6,0,12.325-.8,12.325-5.775,0-1.225-1.175-2.55-3.7-3.15C25.925-10.175,26.25-10.35,26.25-10.7Z" transform="translate(975 620)" fill="#2ca01c"/>
    <path id="Path_6" data-name="Path 6" d="M35.663-75.827l-.043,2.607h-.569c-.306,0-1.07-.059-1.69-.136q-4.611-.535-4.6-2.5A2.945,2.945,0,0,1,29.4-77.16c1.019-1.41-.594-1.69-3.55-.612-.433.161-1.24.5-1.8.756a5.585,5.585,0,0,1-2.437.739c-.586,0-.807-.094-.926-.4-.221-.577,1.028-2.047,3.134-3.711.577-.459,1.2-.977,1.376-1.155.977-.977.679-1.495-.849-1.478-1.41.025-3.515.552-7.7,1.953-2.93.977-3.83,1.223-4.509,1.223-.7,0-1.028-.238-1.028-.764a1.987,1.987,0,0,1,.79-1.418,4.748,4.748,0,0,1,3.236-1.205c.671.008,1.223-.127,1.35-.34.161-.255-1.6-.3-2.5-.059A8.159,8.159,0,0,0,10.3-81.3c-.73,1.062-.051,2,1.46,1.987A9.53,9.53,0,0,0,13.3-79.5a54.108,54.108,0,0,0,5.775-1.851,17.975,17.975,0,0,1,4.543-1c.909-.051,1.053.008.9.373-.136.331-.493.654-2.038,1.851C20.242-78.409,19.5-77.525,19.5-76.6c0,.764.561,1.028,1.792.841a29.606,29.606,0,0,0,4.237-1.359,7.891,7.891,0,0,1,2.768-.637c.306.076.255.323-.221,1.138-.493.832-.543,1.231-.246,1.843.645,1.342,2.981,2.064,6.658,2.064h1.2l.424-.45C37.99-75.105,35.706-78.536,35.663-75.827Z" transform="translate(1009.022 700.534) rotate(-32)" fill="#2ca01c"/>
  </g>
</svg>
